<?xml version="1.0" encoding="UTF-8"?>
<svg version="1.1" xmlns="http://www.w3.org/2000/svg" width="2000" height="2000">
<path d="M0 0 C-2.72395631 2.72395631 -5.59812744 2.87322533 -9.2578125 3.5234375 C-10.82466812 3.81810849 -12.39139342 4.11347303 -13.95800781 4.40942383 C-14.79674438 4.56553131 -15.63548096 4.72163879 -16.49963379 4.88247681 C-52.87415983 11.70640013 -88.7296544 20.95031006 -123.93774414 32.33581543 C-125.98057253 32.99374305 -128.02588949 33.64323847 -130.07226562 34.29003906 C-184.08901153 51.38904703 -237.18593632 73.90386737 -286.61083984 101.66503906 C-288.85223845 102.91743714 -291.10431903 104.14682268 -293.36328125 105.3671875 C-323.12607005 121.51116295 -351.58886355 140.15368843 -379 160 C-379.75684082 160.54575684 -380.51368164 161.09151367 -381.29345703 161.65380859 C-391.9108879 169.32663738 -402.2262895 177.27959048 -412.32373047 185.62353516 C-414.56763312 187.46611062 -416.84520998 189.26461681 -419.125 191.0625 C-428.2914685 198.37715668 -437.11224391 206.12644358 -445.79296875 214.0078125 C-447.73626001 215.76193381 -449.70359448 217.47972694 -451.6875 219.1875 C-460.69492601 227.0415361 -469.4693594 235.24963488 -477.77734375 243.83984375 C-479.64731249 245.65722989 -481.55226655 247.34449296 -483.53125 249.0390625 C-488.59359538 253.43745527 -493.31650557 258.16623516 -498.0456543 262.9152832 C-499.5599258 264.43491668 -501.0794743 265.94912517 -502.59960938 267.46289062 C-507.4115179 272.2718535 -512.13017312 277.11856888 -516.52905273 282.31469727 C-518.11170007 284.12797769 -519.78187498 285.81523907 -521.5 287.5 C-524.53594925 290.48872337 -527.34508659 293.61706479 -530.125 296.84375 C-532.17359094 299.19962958 -534.27203002 301.5050746 -536.375 303.8125 C-540.19914478 308.0544085 -543.84889455 312.40551097 -547.4375 316.84765625 C-549.33020913 319.18859881 -551.25250175 321.50249212 -553.1875 323.80859375 C-561.90698544 334.22871873 -570.06676664 344.9718436 -578 356 C-578.50740723 356.70060547 -579.01481445 357.40121094 -579.53759766 358.12304688 C-625.42967547 421.57054556 -658.63724501 492.20449001 -678 568 C-678.26474121 569.01449219 -678.52948242 570.02898438 -678.80224609 571.07421875 C-686.96177768 602.6595023 -691.69435422 635.48228876 -694 668 C-694.0928125 669.26279785 -694.185625 670.5255957 -694.28125 671.82666016 C-695.1154072 683.91910104 -695.24303283 696.00709082 -695.25 708.125 C-695.25067474 709.19147766 -695.25134949 710.25795532 -695.25204468 711.35675049 C-695.17396812 789.84047795 -680.54625264 866.47650838 -627 927 C-626.25234375 927.85851563 -625.5046875 928.71703125 -624.734375 929.6015625 C-615.58921764 939.9638811 -605.94170566 949.53539458 -595 958 C-594.4229834 958.45342773 -593.8459668 958.90685547 -593.25146484 959.37402344 C-523.91383269 1013.73298408 -431.4960717 1030.14564656 -345.46875 1020.1875 C-296.3628803 1013.88525146 -248.44887438 996.91801703 -208 968 C-207.2565332 967.47148438 -206.51306641 966.94296875 -205.74707031 966.3984375 C-195.04683318 958.75603413 -184.79477632 950.77180719 -175 942 C-173.54980469 940.71609375 -173.54980469 940.71609375 -172.0703125 939.40625 C-165.93255602 933.88393252 -160.03800619 928.13647329 -154.1875 922.3125 C-153.12921997 921.26122925 -153.12921997 921.26122925 -152.04956055 920.1887207 C-137.41987689 905.51415542 -124.84711601 888.95733068 -113 872 C-112.56091309 871.37303223 -112.12182617 870.74606445 -111.66943359 870.10009766 C-75.77943467 818.49859706 -53.04436126 759.26992756 -39.69067383 698.13500977 C-39.2770705 696.25763957 -38.84544489 694.38390175 -38.37768555 692.51928711 C-36.63183615 685.13360208 -36.6816908 677.69758691 -36.59408569 670.15188599 C-35.46331482 581.92662964 -35.46331482 581.92662964 -28 567 C-17.23817085 567.61093377 -6.64188877 568.85984407 4.03344727 570.30078125 C5.80072822 570.53611677 7.56805861 570.77108123 9.33543396 571.00570679 C14.09150971 571.63819127 18.84686739 572.275927 23.60209394 572.91476059 C28.59347042 573.58448325 33.58546273 574.24958552 38.57737732 574.9152832 C46.94723414 576.03212452 55.31665545 577.1521814 63.68579102 578.27441406 C73.35805195 579.57136678 83.03085354 580.86422052 92.70398289 582.1546793 C103.02279883 583.53128615 113.34127934 584.9103931 123.65962863 586.29049301 C126.62771143 586.68734025 129.59584946 587.08377234 132.56399727 587.48013306 C137.22231436 588.10235506 141.88039918 588.7262885 146.5383091 589.35155106 C148.24706859 589.58067854 149.95590198 589.80925571 151.664814 590.03724289 C153.99656193 590.34842704 156.32803107 590.66162265 158.65943909 590.9753418 C159.96402856 591.15010544 161.26861803 591.32486908 162.61274052 591.50492859 C165.43585626 591.91754649 168.21080095 592.40428809 171 593 C170.41090241 601.27875694 169.14196616 609.3345472 167.6875 617.5 C154.5278558 694.33719501 156.0140449 772.79028005 206 945 C206.34885254 945.65758301 206.69770508 946.31516602 207.05712891 946.99267578 C226.30920116 983.154067 255.09205347 1006.35555923 294.28515625 1018.64453125 C299.20518358 1020.10718612 304.17045866 1021.29607165 309.1875 1022.375 C309.96512695 1022.54281982 310.74275391 1022.71063965 311.54394531 1022.88354492 C319.87202368 1024.55874349 325.75995359 1024.17408221 333.4375 1020.5625 C334.2217334 1020.20124023 335.0059668 1019.83998047 335.81396484 1019.46777344 C350.05834892 1012.79457357 362.73223989 1004.84480724 375 995 C375.61117676 994.51128418 376.22235352 994.02256836 376.85205078 993.51904297 C405.54232965 970.34523144 425.26186037 938.95689697 441 906 C441.35030273 905.26894043 441.70060547 904.53788086 442.06152344 903.78466797 C448.98331392 889.21034992 454.70517831 874.23404154 460 859 C460.38736328 857.88963379 460.77472656 856.77926758 461.17382812 855.63525391 C482.59344841 793.1794829 495.44747253 726.81510439 500 661 C500.0725853 659.9863588 500.0725853 659.9863588 500.14663696 658.95223999 C501.24565596 643.13083529 501.20106931 627.28961859 501.1875 611.4375 C501.18723312 610.73885204 501.18696625 610.04020409 501.18669128 609.32038498 C501.17672033 588.51311506 501.02743106 567.78697372 499.18035889 547.04437256 C498.98837098 544.86818475 498.80642746 542.69129321 498.62548828 540.51416016 C490.35970324 442.28076845 466.66101444 345.75164381 394.79418945 159.51025391 C394.30394287 158.44597168 393.81369629 157.38168945 393.30859375 156.28515625 C392.67135376 154.92209351 392.67135376 154.92209351 392.02124023 153.53149414 C391.00788747 151.01955179 390.43731859 148.66743328 390 146 C395.321306 150.18911324 399.39447212 154.7801793 403.609375 160.0703125 C406.00057527 163.00070498 408.49679661 165.7842997 411.0625 168.5625 C415.62529929 173.53244138 419.85034956 178.68350186 424 184 C424.78503906 184.99 425.57007813 185.98 426.37890625 187 C438.15793144 201.86214079 449.84944124 216.81460188 460.38720703 232.59033203 C462.30905259 235.46175432 464.24701792 238.32208618 466.18359375 241.18359375 C475.87590398 255.54215573 485.20649111 270.06808601 494 285 C494.75240967 286.27738037 494.75240967 286.27738037 495.52001953 287.58056641 C536.27941945 357.14917693 566.14376147 431.56117714 604 652 C604.05639648 653.05461426 604.11279297 654.10922852 604.17089844 655.19580078 C608.89166289 746.24510096 598.29191533 836.95684048 511.66845703 981.48632812 C509.3191342 984.07812508 506.94799449 986.64879867 504.56640625 989.2109375 C502.42501785 991.53810845 500.35657371 993.90058615 498.3125 996.3125 C495.54081807 999.50156462 492.56628313 1002.2419912 489.34375 1004.96875 C487.01040813 1006.99097962 484.76110975 1009.08917117 482.51538086 1011.20776367 C475.34902486 1017.94535422 467.86406206 1024.0969661 460 1030 C459.3287207 1030.50644043 458.65744141 1031.01288086 457.96582031 1031.53466797 C395.37920212 1078.49631289 317.75617095 1105.93069973 239 1095 C184.92079911 1086.6744854 133.76617048 1064.62934372 92 1029 C90.8689419 1028.05414636 89.73740358 1027.10886676 88.60546875 1026.1640625 C81.01286518 1019.78573812 73.90922845 1013.11267479 67 1006 C62.67570819 1019.34322118 58.86789727 1032.83338591 55.02262497 1046.32023335 C32.31496579 1125.94594517 7.1433608 1204.88055715 -20.85351562 1282.80731201 C-22.02008678 1286.05593693 -23.18402935 1289.30549522 -24.34765625 1292.55517578 C-52.84244894 1372.06332508 -84.00541275 1450.67713374 -118 1528 C-118.35040344 1528.7970636 -118.70080688 1529.5941272 -119.06182861 1530.41534424 C-129.28121998 1553.65197169 -139.57367794 1576.85544879 -150 1600 C-155.98540102 1598.77796977 -161.73195468 1597.22622369 -167.51025391 1595.25146484 C-168.72011569 1594.84431165 -168.72011569 1594.84431165 -169.95441914 1594.42893314 C-172.62996828 1593.52731583 -175.30323795 1592.61912747 -177.9765625 1591.7109375 C-179.90070337 1591.06111402 -181.82498797 1590.41171602 -183.74940491 1589.76271057 C-188.95641512 1588.00542629 -194.16151175 1586.24253617 -199.36629868 1584.47867966 C-204.84697456 1582.62244618 -210.32942578 1580.77147224 -215.81176758 1578.92016602 C-222.63807789 1576.61466618 -229.46420992 1574.3086438 -236.28956604 1572.00032043 C-251.84641483 1566.73905741 -267.40768773 1561.49109687 -282.97265625 1556.25390625 C-285.08355925 1555.5435447 -287.19446013 1554.83317689 -289.30535889 1554.12280273 C-296.39941789 1551.73555857 -303.49352093 1549.34844527 -310.58777618 1546.96178436 C-340.08077873 1537.03956466 -369.54862068 1527.04510468 -399 1517 C-399 1514 -399 1514 -397.71484375 1512.45703125 C-396.83505859 1511.64298828 -396.83505859 1511.64298828 -395.9375 1510.8125 C-393.43738662 1508.41697304 -391.06782623 1506.00251061 -388.8125 1503.375 C-385.62173081 1499.67284343 -382.32407991 1496.08186361 -379 1492.5 C-374.58485644 1487.73375159 -370.23150306 1482.93092506 -366 1478 C-365.57783203 1477.50951172 -365.15566406 1477.01902344 -364.72070312 1476.51367188 C-354.34229136 1464.45535258 -344.03469941 1452.34669415 -334 1440 C-332.96770006 1438.73807495 -331.9351304 1437.4763705 -330.90234375 1436.21484375 C-324.63327368 1428.5459562 -318.46476022 1420.82170674 -312.47265625 1412.93359375 C-310.74841487 1410.6696694 -309.01482406 1408.41303555 -307.28125 1406.15625 C-299.18945863 1395.60463233 -291.26797373 1384.9541505 -283.53710938 1374.13574219 C-282.06604221 1372.09176258 -280.57635788 1370.06318517 -279.078125 1368.0390625 C-268.26145938 1353.36854963 -258.29455191 1338.11495628 -248.25830078 1322.90600586 C-247.10717201 1321.16233836 -245.95407721 1319.41996921 -244.80078125 1317.67773438 C-224.47573474 1286.95057663 -205.77291788 1255.26278287 -188 1223 C-187.15695312 1221.47270264 -187.15695312 1221.47270264 -186.296875 1219.91455078 C-157.20762421 1166.99846814 -132.23750661 1112.11018606 -110 1056 C-110.33 1055.67 -110.66 1055.34 -111 1055 C-111.54785156 1055.43828125 -112.09570312 1055.8765625 -112.66015625 1056.328125 C-114.38986307 1057.71189045 -116.12043735 1059.09457183 -117.8515625 1060.4765625 C-120.02120359 1062.21144989 -122.18093633 1063.95790546 -124.3359375 1065.7109375 C-161.72128927 1096.03064903 -201.35158063 1120.2794329 -247 1136 C-248.55388428 1136.54116455 -248.55388428 1136.54116455 -250.13916016 1137.09326172 C-272.42353805 1144.78621344 -295.23314449 1150.13405898 -318.5 1153.8125 C-319.72533447 1154.00739014 -320.95066895 1154.20228027 -322.21313477 1154.40307617 C-343.27760817 1157.56267756 -364.15267687 1158.37467216 -385.4375 1158.3125 C-386.77856438 1158.31027743 -388.11962883 1158.30810092 -389.46069336 1158.30596924 C-408.80984526 1158.26336195 -427.83400975 1157.87759147 -447 1155 C-448.41810055 1154.79373235 -449.83623365 1154.5876884 -451.25439453 1154.38183594 C-482.22439385 1149.83028126 -512.2486769 1142.81410673 -542 1133 C-543.01642578 1132.66887207 -544.03285156 1132.33774414 -545.08007812 1131.99658203 C-598.27470352 1114.57472285 -648.47137036 1087.36087394 -689.640625 1049.17578125 C-691.6391708 1047.33275143 -693.67315493 1045.56539274 -695.75 1043.8125 C-705.14507205 1035.64287213 -714.02159834 1026.55212309 -722 1017 C-722.76828125 1016.12085938 -723.5365625 1015.24171875 -724.328125 1014.3359375 C-737.19395055 999.54746611 -748.74717661 983.69961421 -759 967 C-759.41024414 966.33500488 -759.82048828 965.67000977 -760.24316406 964.98486328 C-784.08598824 926.08689082 -800.87393404 884.14306637 -812 840 C-812.4638208 838.16139404 -812.4638208 838.16139404 -812.93701172 836.28564453 C-835.67355937 744.99478071 -832.13252112 650.80930349 -767.37695312 457.90966797 C-765.95462577 454.90411878 -764.54772719 451.89160915 -763.140625 448.87890625 C-751.80699108 424.77274652 -738.90481909 401.75089131 -724.91552734 379.11132812 C-723.21503773 376.34927872 -721.53309894 373.5775344 -719.86328125 370.796875 C-714.35346542 361.6320613 -708.55674861 352.73691445 -702.40039062 343.99316406 C-700.99205825 341.98869658 -699.59668886 339.97569359 -698.203125 337.9609375 C-679.76260342 311.41966838 -659.47618484 286.15648284 -637.421875 262.53515625 C-636.0908851 261.09812594 -634.77906566 259.64340629 -633.46875 258.1875 C-627.59932841 251.66592046 -621.50614923 245.40083054 -615.3125 239.1875 C-614.51642334 238.38683105 -613.72034668 237.58616211 -612.90014648 236.76123047 C-608.68476835 232.55680365 -604.39109536 228.51592926 -599.87817383 224.63305664 C-596.90341702 222.04653015 -594.05476823 219.32927535 -591.1875 216.625 C-586.27540542 212.03318837 -581.27506724 207.63407143 -576.0234375 203.4296875 C-573.69633838 201.55958976 -571.39354747 199.67019091 -569.1015625 197.7578125 C-560.27059471 190.39697114 -551.30751375 183.28952244 -542.03466797 176.49316406 C-539.98706351 174.99050641 -537.94865615 173.47591466 -535.91015625 171.9609375 C-517.34755412 158.26552891 -497.85077819 145.74204565 -478 134 C-477.06849121 133.44666992 -476.13698242 132.89333984 -475.17724609 132.32324219 C-459.20423109 122.86820231 -442.95929462 114.10922266 -426.40576172 105.72851562 C-423.29589213 104.15017321 -420.19565084 102.55460833 -417.09765625 100.953125 C-400.74228955 92.56211078 -383.95571368 85.17245348 -367.12158203 77.80664062 C-363.57394799 76.25381858 -360.03380402 74.68469558 -356.49609375 73.109375 C-321.07534235 57.40020565 -284.25405169 44.61176688 -247 34 C-246.32704895 33.8081311 -245.6540979 33.61626221 -244.96075439 33.4185791 C-170.10012685 12.1594455 -91.20772143 0.14686882 0 0 Z " fill="#482C84" transform="translate(1096,217)"/>
<path d="M0 0 C-2.72395631 2.72395631 -5.59812744 2.87322533 -9.2578125 3.5234375 C-10.82466812 3.81810849 -12.39139342 4.11347303 -13.95800781 4.40942383 C-14.79674438 4.56553131 -15.63548096 4.72163879 -16.49963379 4.88247681 C-52.87415983 11.70640013 -88.7296544 20.95031006 -123.93774414 32.33581543 C-125.98057253 32.99374305 -128.02588949 33.64323847 -130.07226562 34.29003906 C-184.08901153 51.38904703 -237.18593632 73.90386737 -286.61083984 101.66503906 C-288.85223845 102.91743714 -291.10431903 104.14682268 -293.36328125 105.3671875 C-323.12607005 121.51116295 -351.58886355 140.15368843 -379 160 C-379.75684082 160.54575684 -380.51368164 161.09151367 -381.29345703 161.65380859 C-391.9108879 169.32663738 -402.2262895 177.27959048 -412.32373047 185.62353516 C-414.56763312 187.46611062 -416.84520998 189.26461681 -419.125 191.0625 C-428.2914685 198.37715668 -437.11224391 206.12644358 -445.79296875 214.0078125 C-447.73626001 215.76193381 -449.70359448 217.47972694 -451.6875 219.1875 C-460.69492601 227.0415361 -469.4693594 235.24963488 -477.77734375 243.83984375 C-479.64731249 245.65722989 -481.55226655 247.34449296 -483.53125 249.0390625 C-488.59359538 253.43745527 -493.31650557 258.16623516 -498.0456543 262.9152832 C-499.5599258 264.43491668 -501.0794743 265.94912517 -502.59960938 267.46289062 C-507.4115179 272.2718535 -512.13017312 277.11856888 -516.52905273 282.31469727 C-518.11170007 284.12797769 -519.78187498 285.81523907 -521.5 287.5 C-524.53594925 290.48872337 -527.34508659 293.61706479 -530.125 296.84375 C-532.17359094 299.19962958 -534.27203002 301.5050746 -536.375 303.8125 C-540.19914478 308.0544085 -543.84889455 312.40551097 -547.4375 316.84765625 C-549.33020913 319.18859881 -551.25250175 321.50249212 -553.1875 323.80859375 C-561.90698544 334.22871873 -570.06676664 344.9718436 -578 356 C-578.50740723 356.70060547 -579.01481445 357.40121094 -579.53759766 358.12304688 C-625.42967547 421.57054556 -658.63724501 492.20449001 -678 568 C-678.26474121 569.01449219 -678.52948242 570.02898438 -678.80224609 571.07421875 C-686.96177768 602.6595023 -691.69435422 635.48228876 -694 668 C-694.0928125 669.26279785 -694.185625 670.5255957 -694.28125 671.82666016 C-695.1154072 683.91910104 -695.24303283 696.00709082 -695.25 708.125 C-695.25067474 709.19147766 -695.25134949 710.25795532 -695.25204468 711.35675049 C-695.17396812 789.84047795 -680.54625264 866.47650838 -627 927 C-626.25234375 927.85851563 -625.5046875 928.71703125 -624.734375 929.6015625 C-615.58921764 939.9638811 -605.94170566 949.53539458 -595 958 C-594.4229834 958.45342773 -593.8459668 958.90685547 -593.25146484 959.37402344 C-523.91383269 1013.73298408 -431.4960717 1030.14564656 -345.46875 1020.1875 C-296.3628803 1013.88525146 -248.44887438 996.91801703 -208 968 C-207.2565332 967.47148438 -206.51306641 966.94296875 -205.74707031 966.3984375 C-195.04683318 958.75603413 -184.79477632 950.77180719 -175 942 C-173.54980469 940.71609375 -173.54980469 940.71609375 -172.0703125 939.40625 C-165.93255602 933.88393252 -160.03800619 928.13647329 -154.1875 922.3125 C-153.12921997 921.26122925 -153.12921997 921.26122925 -152.04956055 920.1887207 C-137.41987689 905.51415542 -124.84711601 888.95733068 -113 872 C-112.56091309 871.37303223 -112.12182617 870.74606445 -111.66943359 870.10009766 C-76.53175071 819.58025316 -53.83230494 761.65377128 -40.61279297 701.80419922 C-40.45248596 701.09187134 -40.29217896 700.37954346 -40.12701416 699.64562988 C-39.68982414 697.70055218 -39.26185766 695.75340796 -38.83447266 693.80615234 C-38.55909668 692.88012207 -38.2837207 691.9540918 -38 691 C-37.34 690.67 -36.68 690.34 -36 690 C-35.96685699 690.61957581 -35.93371399 691.23915161 -35.89956665 691.87750244 C-35.54793346 698.4337793 -35.18977259 704.98967825 -34.828125 711.54541016 C-34.69467649 713.97924154 -34.56279221 716.4131593 -34.43261719 718.84716797 C-33.47033069 737.54332415 -33.47033069 737.54332415 -31.54067993 756.1585083 C-30.27026249 766.85778877 -32.0544037 777.4817342 -34.046875 787.98828125 C-34.25398102 789.10454895 -34.46108704 790.22081665 -34.67446899 791.37091064 C-35.35643438 795.02005176 -36.05150973 798.66648765 -36.75 802.3125 C-37.11197479 804.21272415 -37.11197479 804.21272415 -37.48126221 806.15133667 C-48.79061539 865.27319365 -63.46651856 923.72671353 -82 981 C-82.25587891 981.79237061 -82.51175781 982.58474121 -82.77539062 983.40112305 C-85.93375745 993.17056241 -89.1765735 1002.90814347 -92.50732422 1012.62011719 C-93.53179816 1015.61253331 -94.53665029 1018.61065286 -95.52783203 1021.61425781 C-96.78604567 1025.42640882 -98.07477925 1029.22695328 -99.38522339 1033.02145386 C-99.86892909 1034.43773123 -100.34246471 1035.85753354 -100.80447388 1037.28103638 C-103.93486359 1046.88998937 -107.81037479 1052.89752462 -116 1059 C-117.18381516 1059.96427849 -118.36631833 1060.93017239 -119.546875 1061.8984375 C-120.61162508 1062.72777036 -121.67934874 1063.55329956 -122.75 1064.375 C-123.95850987 1065.31227242 -125.16683813 1066.24977904 -126.375 1067.1875 C-126.97828125 1067.65414063 -127.5815625 1068.12078125 -128.203125 1068.6015625 C-129.93730239 1069.9512049 -131.65828904 1071.31573564 -133.375 1072.6875 C-167.98192812 1100.30160502 -205.10729762 1121.50977904 -247 1136 C-248.03882324 1136.36222656 -249.07764648 1136.72445313 -250.14794922 1137.09765625 C-272.4293068 1144.78846715 -295.23669413 1150.13462017 -318.5 1153.8125 C-319.72533447 1154.00739014 -320.95066895 1154.20228027 -322.21313477 1154.40307617 C-343.27760817 1157.56267756 -364.15267687 1158.37467216 -385.4375 1158.3125 C-386.77856438 1158.31027743 -388.11962883 1158.30810092 -389.46069336 1158.30596924 C-408.80984526 1158.26336195 -427.83400975 1157.87759147 -447 1155 C-448.41810055 1154.79373235 -449.83623365 1154.5876884 -451.25439453 1154.38183594 C-482.22439385 1149.83028126 -512.2486769 1142.81410673 -542 1133 C-543.01642578 1132.66887207 -544.03285156 1132.33774414 -545.08007812 1131.99658203 C-598.27470352 1114.57472285 -648.47137036 1087.36087394 -689.640625 1049.17578125 C-691.6391708 1047.33275143 -693.67315493 1045.56539274 -695.75 1043.8125 C-705.14507205 1035.64287213 -714.02159834 1026.55212309 -722 1017 C-722.76828125 1016.12085938 -723.5365625 1015.24171875 -724.328125 1014.3359375 C-737.19395055 999.54746611 -748.74717661 983.69961421 -759 967 C-759.41024414 966.33500488 -759.82048828 965.67000977 -760.24316406 964.98486328 C-784.08598824 926.08689082 -800.87393404 884.14306637 -812 840 C-812.4638208 838.16139404 -812.4638208 838.16139404 -812.93701172 836.28564453 C-835.67355937 744.99478071 -832.13252112 650.80930349 -767.37695312 457.90966797 C-765.95462577 454.90411878 -764.54772719 451.89160915 -763.140625 448.87890625 C-751.80699108 424.77274652 -738.90481909 401.75089131 -724.91552734 379.11132812 C-723.21503773 376.34927872 -721.53309894 373.5775344 -719.86328125 370.796875 C-714.35346542 361.6320613 -708.55674861 352.73691445 -702.40039062 343.99316406 C-700.99205825 341.98869658 -699.59668886 339.97569359 -698.203125 337.9609375 C-679.76260342 311.41966838 -659.47618484 286.15648284 -637.421875 262.53515625 C-636.0908851 261.09812594 -634.77906566 259.64340629 -633.46875 258.1875 C-627.59932841 251.66592046 -621.50614923 245.40083054 -615.3125 239.1875 C-614.51642334 238.38683105 -613.72034668 237.58616211 -612.90014648 236.76123047 C-608.68476835 232.55680365 -604.39109536 228.51592926 -599.87817383 224.63305664 C-596.90341702 222.04653015 -594.05476823 219.32927535 -591.1875 216.625 C-586.27540542 212.03318837 -581.27506724 207.63407143 -576.0234375 203.4296875 C-573.69633838 201.55958976 -571.39354747 199.67019091 -569.1015625 197.7578125 C-560.27059471 190.39697114 -551.30751375 183.28952244 -542.03466797 176.49316406 C-539.98706351 174.99050641 -537.94865615 173.47591466 -535.91015625 171.9609375 C-517.34755412 158.26552891 -497.85077819 145.74204565 -478 134 C-477.06849121 133.44666992 -476.13698242 132.89333984 -475.17724609 132.32324219 C-459.20423109 122.86820231 -442.95929462 114.10922266 -426.40576172 105.72851562 C-423.29589213 104.15017321 -420.19565084 102.55460833 -417.09765625 100.953125 C-400.74228955 92.56211078 -383.95571368 85.17245348 -367.12158203 77.80664062 C-363.57394799 76.25381858 -360.03380402 74.68469558 -356.49609375 73.109375 C-321.07534235 57.40020565 -284.25405169 44.61176688 -247 34 C-246.32704895 33.8081311 -245.6540979 33.61626221 -244.96075439 33.4185791 C-170.10012685 12.1594455 -91.20772143 0.14686882 0 0 Z " fill="#503588" transform="translate(1096,217)"/>
<path d="M0 0 C5.321306 4.18911324 9.39447212 8.7801793 13.609375 14.0703125 C16.00057527 17.00070498 18.49679661 19.7842997 21.0625 22.5625 C25.62529929 27.53244138 29.85034956 32.68350186 34 38 C34.78503906 38.99 35.57007813 39.98 36.37890625 41 C48.15793144 55.86214079 59.84944124 70.81460188 70.38720703 86.59033203 C72.30905259 89.46175432 74.24701792 92.32208618 76.18359375 95.18359375 C85.87590398 109.54215573 95.20649111 124.06808601 104 139 C104.50160645 139.85158691 105.00321289 140.70317383 105.52001953 141.58056641 C146.27941945 211.14917693 176.14376147 285.56117714 214 506 C214.05639648 507.05461426 214.11279297 508.10922852 214.17089844 509.19580078 C218.89033894 600.21956599 208.30449312 690.92850784 158.4375 784.8125 C158.01968262 785.53074951 157.60186523 786.24899902 157.17138672 786.98901367 C154.25498057 791.87250971 154.25498057 791.87250971 152 793 C153.28336016 789.66790224 154.70953452 786.50895417 156.3828125 783.35546875 C156.82753906 782.51435547 157.27226563 781.67324219 157.73046875 780.80664062 C158.19066406 779.94232422 158.65085937 779.07800781 159.125 778.1875 C159.82689453 776.86202148 159.82689453 776.86202148 160.54296875 775.50976562 C161.69307603 773.33864475 162.84548146 771.1687774 164 769 C159.75640464 774.59598401 159.75640464 774.59598401 155.68359375 780.31640625 C149.8209183 788.78924677 143.42006907 796.58628488 136.55322266 804.26318359 C135.10427082 805.88340417 133.6663247 807.51271093 132.23046875 809.14453125 C127.44030054 814.52335301 122.52728093 819.39393256 117 824 C115.61941406 825.21236328 115.61941406 825.21236328 114.2109375 826.44921875 C100.95716645 838.03995309 86.64536856 847.9221522 71 856 C70.22205078 856.40460449 69.44410156 856.80920898 68.64257812 857.22607422 C30.08741777 877.04464577 -20.59713787 888.97793723 -64 881 C-64.99 880.34 -65.98 879.68 -67 879 C-66.21689453 878.66174194 -66.21689453 878.66174194 -65.41796875 878.31665039 C-47.04371279 870.3342268 -30.65388595 861.56215383 -15 849 C-14.38882324 848.51128418 -13.77764648 848.02256836 -13.14794922 847.51904297 C15.54232965 824.34523144 35.26186037 792.95689697 51 760 C51.35030273 759.26894043 51.70060547 758.53788086 52.06152344 757.78466797 C58.98331392 743.21034992 64.70517831 728.23404154 70 713 C70.38736328 711.88963379 70.77472656 710.77926758 71.17382812 709.63525391 C92.59344841 647.1794829 105.44747253 580.81510439 110 515 C110.0483902 514.3242392 110.0967804 513.64847839 110.14663696 512.95223999 C111.24565596 497.13083529 111.20106931 481.28961859 111.1875 465.4375 C111.18723312 464.73885204 111.18696625 464.04020409 111.18669128 463.32038498 C111.17672033 442.51311506 111.02743106 421.78697372 109.18035889 401.04437256 C108.98837098 398.86818475 108.80642746 396.69129321 108.62548828 394.51416016 C100.35970324 296.28076845 76.66101444 199.75164381 4.79418945 13.51025391 C4.05881958 11.91383057 4.05881958 11.91383057 3.30859375 10.28515625 C2.88376709 9.37644775 2.45894043 8.46773926 2.02124023 7.53149414 C1.00788747 5.01955179 0.43731859 2.66743328 0 0 Z " fill="#3B266E" transform="translate(1486,363)"/>
<path d="M0 0 C0.66 0.33 1.32 0.66 2 1 C1.34 2.98 0.68 4.96 0 7 C-0.66 6.67 -1.32 6.34 -2 6 C-1.34 4.02 -0.68 2.04 0 0 Z " fill="#7055A1" transform="translate(1445,1188)"/>
</svg>
